<svg width="320" height="114" viewBox="0 0 320 114" fill="none" xmlns="http://www.w3.org/2000/svg">
<path d="M145.407 95C158.22 95 166.367 88.8851 166.446 76.6552V40.2184C166.446 39.1138 165.551 38.2184 164.446 38.2184H158.876C157.771 38.2184 156.876 39.1138 156.876 40.2184V44.5716C154.503 40.442 150.39 37.3448 143.588 37.3448C132.91 37.3448 125 46.0805 125 57.7544V58.3103C125 70.302 132.989 78.0846 143.35 78.0846C149.441 78.0846 154.582 74.3521 156.876 70.3814V76.4964C156.876 83.9613 152.763 87.6938 145.328 87.6938C139.929 87.6938 136.833 85.9156 135.581 82.7689C135.226 81.8775 134.43 81.1818 133.471 81.1818H127.773C126.558 81.1818 125.613 82.2612 125.933 83.4326C127.785 90.2088 133.694 95 145.407 95ZM145.723 70.6991C139.554 70.6991 134.808 65.9342 134.808 58.2309V57.5956C134.808 50.0512 138.921 44.8892 146.04 44.8892C152.921 44.8892 157.192 49.5747 157.192 57.4368V57.9927C157.192 65.9342 152.367 70.6991 145.723 70.6991Z" fill="black"/>
<path d="M173.076 77.7524C173.076 78.8569 173.971 79.7524 175.076 79.7524H180.646C181.751 79.7524 182.646 78.8569 182.646 77.7524V55.2926C182.646 48.7012 186.996 45.3657 192.375 45.3657C198.07 45.3657 200.601 48.2247 200.601 54.4984V77.7524C200.601 78.8569 201.496 79.7524 202.601 79.7524H208.172C209.276 79.7524 210.172 78.8569 210.172 77.7524V53.6249C210.172 42.1891 204.318 37.3448 196.013 37.3448C189.211 37.3448 184.624 40.7597 182.646 44.8098V40.2184C182.646 39.1138 181.751 38.2184 180.646 38.2184H175.076C173.971 38.2184 173.076 39.1138 173.076 40.2184V77.7524Z" fill="black"/>
<path d="M228.079 80.5465C234.406 80.5465 238.045 78.2435 240.734 74.6698V77.7524C240.734 78.8569 241.63 79.7524 242.734 79.7524H248.147C249.251 79.7524 250.147 78.8569 250.147 77.7524V52.5131C250.147 41.1567 242.87 37.3448 233.615 37.3448C225.078 37.3448 217.887 40.792 216.203 48.9334C215.966 50.0779 216.899 51.0836 218.068 51.0836H223.369C224.385 51.0836 225.21 50.3099 225.504 49.337C226.424 46.2898 228.83 44.5716 233.062 44.5716C238.678 44.5716 240.576 47.3511 240.576 52.9101V55.0543H235.435C223.57 55.0543 214.237 58.5486 214.237 68.2372C214.237 76.8934 220.486 80.5465 228.079 80.5465ZM230.373 73.6374C225.627 73.6374 223.728 71.3344 223.728 67.8401C223.728 62.7576 228.395 61.0899 235.672 61.0899H240.576V65.2194C240.576 70.5402 236.226 73.6374 230.373 73.6374Z" fill="black"/>
<path d="M256.37 77.7524C256.37 78.8569 257.266 79.7524 258.37 79.7524H263.941C265.046 79.7524 265.941 78.8569 265.941 77.7524V58.1515C265.941 50.0545 270.212 47.1168 277.405 46.6304C278.5 46.5564 279.387 45.673 279.387 44.5758V39.606C279.387 38.4925 278.474 37.5803 277.367 37.699C271.655 38.3113 268.287 41.2901 265.941 46.001V40.2184C265.941 39.1138 265.046 38.2184 263.941 38.2184H258.37C257.266 38.2184 256.37 39.1138 256.37 40.2184V77.7524Z" fill="black"/>
<path d="M283.853 77.7524C283.853 78.8569 284.749 79.7524 285.853 79.7524H291.424C292.528 79.7524 293.424 78.8569 293.424 77.7524V59.3427L308.326 78.9621C308.704 79.46 309.294 79.7524 309.919 79.7524H315.922C317.584 79.7524 318.521 77.8423 317.503 76.5279L302.599 57.278L315.885 41.507C316.981 40.2063 316.056 38.2184 314.355 38.2184H309.169C308.565 38.2184 307.994 38.4908 307.614 38.9598L293.424 56.4838V21C293.424 19.8954 292.528 19 291.424 19H285.853C284.749 19 283.853 19.8954 283.853 21V77.7524Z" fill="black"/>
<circle cx="57" cy="57" r="57" fill="#59D29F"/>
<path d="M91.611 64.7005C88.3 66.895 86.606 70.899 87.4145 74.826C88.8005 81.7175 82.7175 87.8005 75.826 86.4145C71.899 85.6445 67.895 87.3 65.7005 90.611C61.812 96.463 53.2265 96.463 49.338 90.611C47.105 87.3 43.101 85.606 39.174 86.4145C32.2825 87.8005 26.1995 81.7175 27.5855 74.826C28.3555 70.899 26.7 66.895 23.389 64.7005C17.537 60.812 17.537 52.2265 23.389 48.338C26.7 46.105 28.394 42.101 27.5855 38.174C26.1995 31.2825 32.2825 25.1995 39.174 26.5855C43.101 27.394 47.105 25.7 49.2995 22.389C53.188 16.537 61.7735 16.537 65.662 22.389C67.895 25.7 71.899 27.394 75.826 26.5855C82.7175 25.1995 88.8005 31.2825 87.4145 38.174C86.606 42.101 88.3 46.105 91.611 48.2995C97.463 52.188 97.463 60.812 91.611 64.7005Z" fill="#3D5B6A"/>
</svg>
