<?xml version="1.0" encoding="utf-8"?>
<svg width="320" height="114" viewBox="0 0 320 114" fill="none" xmlns="http://www.w3.org/2000/svg">
  <path d="M 84.407 95 C 97.22 95 105.367 88.885 105.446 76.655 L 105.446 40.218 C 105.446 39.114 104.551 38.218 103.446 38.218 L 97.876 38.218 C 96.771 38.218 95.876 39.114 95.876 40.218 L 95.876 44.572 C 93.503 40.442 89.39 37.345 82.588 37.345 C 71.91 37.345 64 46.081 64 57.754 L 64 58.31 C 64 70.302 71.989 78.085 82.35 78.085 C 88.441 78.085 93.582 74.352 95.876 70.381 L 95.876 76.496 C 95.876 83.961 91.763 87.694 84.328 87.694 C 78.929 87.694 75.833 85.916 74.581 82.769 C 74.226 81.878 73.43 81.182 72.471 81.182 L 66.773 81.182 C 65.558 81.182 64.613 82.261 64.933 83.433 C 66.785 90.209 72.694 95 84.407 95 Z M 84.723 70.699 C 78.554 70.699 73.808 65.934 73.808 58.231 L 73.808 57.596 C 73.808 50.051 77.921 44.889 85.04 44.889 C 91.921 44.889 96.192 49.575 96.192 57.437 L 96.192 57.993 C 96.192 65.934 91.367 70.699 84.723 70.699 Z" fill="black"/>
  <path d="M 112.076 77.752 C 112.076 78.857 112.971 79.752 114.076 79.752 L 119.646 79.752 C 120.751 79.752 121.646 78.857 121.646 77.752 L 121.646 55.293 C 121.646 48.701 125.996 45.366 131.375 45.366 C 137.07 45.366 139.601 48.225 139.601 54.498 L 139.601 77.752 C 139.601 78.857 140.496 79.752 141.601 79.752 L 147.172 79.752 C 148.276 79.752 149.172 78.857 149.172 77.752 L 149.172 53.625 C 149.172 42.189 143.318 37.345 135.013 37.345 C 128.211 37.345 123.624 40.76 121.646 44.81 L 121.646 40.218 C 121.646 39.114 120.751 38.218 119.646 38.218 L 114.076 38.218 C 112.971 38.218 112.076 39.114 112.076 40.218 L 112.076 77.752 Z" fill="black"/>
  <path d="M 167.079 80.547 C 173.406 80.547 177.045 78.244 179.734 74.67 L 179.734 77.752 C 179.734 78.857 180.63 79.752 181.734 79.752 L 187.147 79.752 C 188.251 79.752 189.147 78.857 189.147 77.752 L 189.147 52.513 C 189.147 41.157 181.87 37.345 172.615 37.345 C 164.078 37.345 156.887 40.792 155.203 48.933 C 154.966 50.078 155.899 51.084 157.068 51.084 L 162.369 51.084 C 163.385 51.084 164.21 50.31 164.504 49.337 C 165.424 46.29 167.83 44.572 172.062 44.572 C 177.678 44.572 179.576 47.351 179.576 52.91 L 179.576 55.054 L 174.435 55.054 C 162.57 55.054 153.237 58.549 153.237 68.237 C 153.237 76.893 159.486 80.547 167.079 80.547 Z M 169.373 73.637 C 164.627 73.637 162.728 71.334 162.728 67.84 C 162.728 62.758 167.395 61.09 174.672 61.09 L 179.576 61.09 L 179.576 65.219 C 179.576 70.54 175.226 73.637 169.373 73.637 Z" fill="black"/>
  <path d="M 195.37 77.752 C 195.37 78.857 196.266 79.752 197.37 79.752 L 202.941 79.752 C 204.046 79.752 204.941 78.857 204.941 77.752 L 204.941 58.152 C 204.941 50.054 209.212 47.117 216.405 46.63 C 217.5 46.556 218.387 45.673 218.387 44.576 L 218.387 39.606 C 218.387 38.492 217.474 37.58 216.367 37.699 C 210.655 38.311 207.287 41.29 204.941 46.001 L 204.941 40.218 C 204.941 39.114 204.046 38.218 202.941 38.218 L 197.37 38.218 C 196.266 38.218 195.37 39.114 195.37 40.218 L 195.37 77.752 Z" fill="black"/>
  <path d="M 222.853 77.752 C 222.853 78.857 223.749 79.752 224.853 79.752 L 230.424 79.752 C 231.528 79.752 232.424 78.857 232.424 77.752 L 232.424 59.343 L 247.326 78.962 C 247.704 79.46 248.294 79.752 248.919 79.752 L 254.922 79.752 C 256.584 79.752 257.521 77.842 256.503 76.528 L 241.599 57.278 L 254.885 41.507 C 255.981 40.206 255.056 38.218 253.355 38.218 L 248.169 38.218 C 247.565 38.218 246.994 38.491 246.614 38.96 L 232.424 56.484 L 232.424 21 C 232.424 19.895 231.528 19 230.424 19 L 224.853 19 C 223.749 19 222.853 19.895 222.853 21 L 222.853 77.752 Z" fill="black"/>
</svg>