<svg width="114" height="114" viewBox="0 0 114 114" fill="none" xmlns="http://www.w3.org/2000/svg">
  <style>
    path {
      fill: #59D29F;
    }
    circle {
    fill: #3D5B6A;
    }
    @media (prefers-color-scheme: dark) {
      path {
        fill: #3D5B6A;
      }
      circle {
        fill: #59D29F;
      }
    }
  </style>
  <circle cx="57" cy="57" r="57"/>
<path d="M91.611 64.7005C88.3 66.895 86.606 70.899 87.4145 74.826C88.8005 81.7175 82.7175 87.8005 75.826 86.4145C71.899 85.6445 67.895 87.3 65.7005 90.611C61.812 96.463 53.2265 96.463 49.338 90.611C47.105 87.3 43.101 85.606 39.174 86.4145C32.2825 87.8005 26.1995 81.7175 27.5855 74.826C28.3555 70.899 26.7 66.895 23.389 64.7005C17.537 60.812 17.537 52.2265 23.389 48.338C26.7 46.105 28.394 42.101 27.5855 38.174C26.1995 31.2825 32.2825 25.1995 39.174 26.5855C43.101 27.394 47.105 25.7 49.2995 22.389C53.188 16.537 61.7735 16.537 65.662 22.389C67.895 25.7 71.899 27.394 75.826 26.5855C82.7175 25.1995 88.8005 31.2825 87.4145 38.174C86.606 42.101 88.3 46.105 91.611 48.2995C97.463 52.188 97.463 60.812 91.611 64.7005Z"/>
</svg>
