<svg width="571" height="500" viewBox="0 0 571 500" fill="none" xmlns="http://www.w3.org/2000/svg">
<path d="M244.151 428.927C193.811 426.129 181.691 440.121 151.859 440.121C122.028 440.121 104.315 433.591 75.4153 438.256C46.5159 442.921 34.3974 441.988 19.4816 455.05C4.56575 468.111 -2.56764 466.979 0.836967 475.574C2.16304 478.922 4.81544 477.12 11.5999 476.42C127.408 464.464 249.975 493.06 350.891 493.302C434.558 493.502 461.838 472.071 456.701 458.315C439.741 412.892 375 434.486 244.151 428.927V428.927Z" fill="#3D5C6B" fill-opacity="0.2"/>
<path fill-rule="evenodd" clip-rule="evenodd" d="M216.855 268.343C196.055 273.51 212.892 305.214 192.94 314.166C174.614 322.387 162.895 341.637 144.456 351.936C120.005 365.59 96.9375 369.981 73.1155 387.882C61.5109 396.603 24.8103 391.374 23.709 405.966C80.25 397.18 110.46 422.018 145.267 426.667C175.984 430.77 199.207 429.08 225.195 419.115C315.416 384.521 277.648 306.656 277.296 282.969C259.502 279.658 234.069 264.066 216.855 268.343Z" fill="#3D5C6B"/>
<path d="M475.131 330.377C474.125 332.91 473.869 335 474.209 336.761C474.548 338.521 475.472 339.963 476.698 341.333C477.925 342.702 479.44 344.021 481.061 345.382C482.683 346.743 484.424 348.121 486.229 349.442C488.035 350.762 489.844 351.84 491.601 352.643C493.358 353.445 495.056 353.986 496.603 354.192C498.15 354.397 499.545 354.26 500.698 353.638C501.852 353.017 502.761 351.908 503.363 350.199C503.964 348.49 503.968 347.013 503.471 345.773C502.974 344.534 501.977 343.54 500.668 342.68C499.359 341.821 497.747 341.095 496.065 340.229C494.383 339.363 492.643 338.333 490.992 336.884C489.34 335.435 487.942 333.466 486.589 331.597C485.236 329.729 483.901 327.998 482.536 326.928C481.171 325.859 479.797 325.443 478.535 325.944C477.273 326.445 474.123 332.909 475.131 330.377L475.131 330.377Z" fill="#E1D6B9"/>
<path d="M482.63 325.319C484.015 326.186 485.396 327.583 486.776 329.203C488.354 331.055 489.941 333.171 491.835 334.845C493.729 336.52 495.703 337.752 497.614 338.827C499.525 339.901 501.354 340.852 502.831 341.977C504.308 343.102 505.425 344.401 505.992 345.932C506.558 347.462 506.578 349.212 505.959 351.126C505.341 353.04 504.288 354.356 502.918 355.144C501.547 355.933 499.861 356.2 497.992 356.071C496.123 355.942 494.073 355.427 491.973 354.59C489.873 353.753 487.73 352.579 485.623 351.082C483.516 349.585 481.578 348.049 479.815 346.56C478.053 345.072 476.458 343.648 475.21 342.145C474.735 341.574 474.316 340.985 473.958 340.373C473.236 339.136 474.562 336.38 475.019 337.79C475.443 339.096 476.197 340.235 477.158 341.321C478.329 342.644 479.779 343.918 481.334 345.231C482.888 346.544 484.56 347.872 486.293 349.145C488.026 350.418 489.761 351.459 491.446 352.234C493.131 353.009 494.76 353.533 496.243 353.733C497.726 353.933 499.063 353.802 500.168 353.207C501.272 352.612 502.142 351.551 502.718 349.909C503.293 348.268 503.295 346.848 502.821 345.655C502.346 344.461 501.394 343.501 500.144 342.669C498.894 341.837 497.353 341.131 495.743 340.293C494.133 339.454 492.463 338.46 490.873 337.066C489.283 335.672 487.933 333.781 486.633 331.983C485.333 330.185 484.058 328.515 482.759 327.479C482.596 327.349 482.433 327.228 482.271 327.119C481.854 326.837 481.442 326.61 481.025 326.489C480.545 326.349 480.847 324.286 482.037 324.981C482.23 325.093 482.516 325.524 482.63 325.319L482.63 325.319Z" fill="#394655"/>
<path d="M399.347 425.095C403.564 433.021 402.083 442.104 402.905 448.86C403.728 455.617 406.83 460.004 409.285 463.413C411.739 466.822 413.886 469.069 416.071 469.8C418.256 470.53 420.442 469.767 422.822 467.121C425.203 464.475 426.148 461.447 426.091 457.976C426.034 454.504 424.937 450.606 423.503 445.922C422.068 441.238 420.475 435.718 417.211 429.644C413.947 423.569 409.489 416.456 402.291 409.433C395.093 402.41 386.116 396.85 378.28 392.306C370.444 387.762 363.706 384.216 358.426 381.603C353.146 378.989 349.2 377.33 346.348 376.598C343.497 375.865 341.725 376.047 341.103 377.153C340.481 378.258 341.434 380.109 344.025 382.606C346.617 385.103 350.921 388.251 356.981 392.034C363.041 395.817 371 400.194 379.018 405.536C387.036 410.877 395.129 417.168 399.347 425.095V425.095Z" fill="#394655"/>
<path d="M400.89 422.886C405.071 429.452 405.362 436.9 405.471 443.5C405.58 450.1 407.159 455.037 409.292 458.574C411.425 462.112 413.521 464.537 415.436 465.623C417.352 466.71 419.19 466.411 421.152 464.254C423.113 462.097 423.669 459.436 423.291 456.277C422.913 453.119 421.61 449.457 420.243 444.952C418.876 440.448 417.49 435.099 414.572 429.447C411.655 423.794 407.498 417.52 401.545 411.464C395.593 405.407 388.297 400.54 381.695 396.555C375.093 392.57 369.193 389.44 364.517 387.06C359.841 384.68 356.308 383.066 353.83 382.227C351.352 381.387 349.907 381.318 349.549 382.061C349.192 382.804 350.325 384.258 352.9 386.319C355.476 388.379 359.551 391.043 364.917 394.303C370.283 397.563 377.002 401.407 383.649 406.081C390.295 410.756 396.709 416.32 400.89 422.886V422.886Z" fill="#E1D6B9"/>
<path d="M237.979 333.272C229.401 330.761 223.657 324.964 218.14 321.542C212.623 318.12 207.378 317.085 203.274 316.301C199.171 315.518 196.123 315.245 194.17 315.845C192.217 316.444 191.366 317.884 191.778 320.474C192.189 323.064 193.812 325.205 196.411 327.133C199.01 329.06 202.595 330.747 206.98 332.72C211.364 334.693 216.468 337.063 223.063 338.972C229.657 340.882 237.791 342.824 247.63 343.449C257.47 344.073 267.381 343.051 275.805 341.986C284.228 340.92 291.205 339.8 296.55 338.83C301.895 337.859 305.673 336.968 308.059 336.062C310.445 335.155 311.457 334.234 311.044 333.324C310.631 332.414 308.648 331.813 305.129 331.606C301.61 331.399 296.501 331.617 289.789 332.29C283.076 332.963 274.696 334.18 265.566 334.881C256.436 335.582 246.557 335.784 237.979 333.272V333.272Z" fill="#394655"/>
<path d="M238.611 335.221C231.06 333.458 225.376 329.401 220.436 325.737C215.496 322.073 210.831 320.025 206.841 319.02C202.85 318.015 199.705 317.619 197.664 317.894C195.623 318.168 194.653 319.186 194.976 321.307C195.298 323.428 196.902 325.182 199.477 326.785C202.052 328.388 205.597 329.847 209.805 331.75C214.014 333.653 218.858 336.022 224.916 337.855C230.975 339.687 238.294 341.296 246.615 341.952C254.936 342.608 263.248 341.974 270.461 341.164C277.674 340.355 283.8 339.388 288.583 338.565C293.365 337.742 296.842 337.017 299.065 336.344C301.288 335.671 302.274 335.041 301.957 334.458C301.641 333.875 299.834 333.58 296.647 333.611C293.46 333.643 288.857 334.027 282.979 334.674C277.102 335.32 269.917 336.264 262.168 336.706C254.418 337.149 246.162 336.983 238.611 335.221V335.221Z" fill="#E1D6B9"/>
<path d="M387.639 56.0695C389.081 59.543 391.908 62.3214 395.235 64.3026C398.562 66.2839 402.327 67.5115 406.001 68.0758C409.675 68.6401 413.298 68.5406 416.895 67.6118C420.493 66.6829 424.75 65.1915 427.801 62.6048C430.852 60.018 431.948 56.8062 432.611 53.8551C433.273 50.904 433.808 47.5734 435.805 43.5525C437.802 39.5318 439.601 35.4549 439.466 32.4919C439.33 29.529 438.646 26.8135 437.363 24.4812C436.08 22.1488 434.32 20.4146 432.2 19.2033C430.08 17.992 427.6 17.3032 424.859 17.0832C422.118 16.8632 419.115 17.11 415.946 17.8116C412.778 18.5133 409.445 19.6681 406.047 21.3369C402.649 23.0058 399.502 25.0378 396.74 27.3917C393.979 29.7456 391.601 32.4255 389.829 35.3556C388.057 38.2857 386.899 41.47 386.597 44.7268C386.294 47.9835 386.197 52.596 387.639 56.0695V56.0695Z" fill="#96D6FF"/>
<path d="M407.741 18.3691C410.506 17.2582 413.218 16.4433 415.833 15.8959C419.32 15.1661 422.628 14.9153 425.653 15.1582C428.678 15.4012 431.418 16.1363 433.771 17.441C436.124 18.7457 438.087 20.6169 439.541 23.1374C440.996 25.6578 441.81 28.6005 442.02 31.8161C442.229 35.0318 440.952 39.1481 438.701 43.5255C436.45 47.9029 435.813 51.5683 435.113 54.7669C434.415 57.9544 432.27 60.8868 428.381 63.343C427.931 63.6244 426.966 62.4465 427.308 62.1353C430.336 59.4356 431.092 56.2382 432.123 53.5812C432.783 50.7115 433.315 47.4705 435.279 43.5551C437.243 39.6398 439.013 35.6699 438.893 32.7845C438.773 29.8989 438.118 27.2513 436.875 24.9798C435.633 22.7081 433.919 21.0238 431.852 19.8444C429.786 18.665 427.363 17.9894 424.683 17.7754C422.003 17.5615 419.068 17.8024 415.965 18.4863C414.414 18.8284 412.816 19.2847 411.195 19.8549C409.575 20.425 407.925 21.1106 406.259 21.9225C402.93 23.5495 399.854 25.5296 397.151 27.8241C394.448 30.1186 392.119 32.7347 390.386 35.5881C388.653 38.4415 387.521 41.5368 387.219 44.7044C386.918 47.872 386.808 52.3531 388.199 55.7303C389.341 58.5037 391.362 60.8532 393.911 62.6106C394.386 62.9376 392.44 64.9796 390.992 64.0978C388.291 62.4509 386.463 59.7957 385.307 56.9853C383.744 53.185 383.56 48.3512 383.859 44.7846C384.157 41.2181 385.395 37.7409 387.308 34.5666C389.221 31.3922 391.794 28.514 394.798 26.0023C397.802 23.4906 401.239 21.3366 404.96 19.5817C405.89 19.1431 406.82 18.7407 407.74 18.3693L407.741 18.3691Z" fill="#394655"/>
<path d="M431.997 36.7574C431.517 35.9928 430.282 35.7406 428.362 36.2709C425.444 37.0764 422.091 40.3105 420.24 42.7794C419.225 44.1337 418.074 45.4404 417.484 47.0377C417.284 47.5799 417.108 48.1256 417.252 48.876C417.917 48.7481 418.427 47.8948 418.771 47.2425C420.125 44.6715 422.019 42.3747 424.457 40.6803C426.507 39.2548 426.772 38.2437 428.833 37.3655C430.137 36.8097 430.887 37.1092 431.997 36.7574V36.7574Z" fill="#394655"/>
<path d="M420.591 42.2869C420.028 41.6765 421.087 43.5496 421.796 43.7822C424.455 44.6551 427.005 45.8367 429.624 46.8104C430.478 47.1273 430.729 46.2412 430.01 45.786C429.279 45.3236 428.519 45.013 427.725 44.7241C426.981 44.4537 426.174 44.3514 425.453 44.0289C424.069 43.4093 423.322 42.5678 421.977 41.8695C421.516 41.6301 420.891 42.6117 420.592 42.2875L420.591 42.2869Z" fill="#394655"/>
<path d="M503.26 286.507C496.795 339.767 485.378 391.487 445.038 426.806C394.147 471.362 300.596 477.25 234.42 434.974C215.283 422.748 200.044 388.786 197.602 366.824C192.499 320.917 211.365 289.827 206.959 247.463C203.452 213.744 186.386 185.84 188.003 145.691C189.088 118.75 195.684 87.4035 216.121 70.7493C242.894 48.9311 274.154 36.4376 309.607 37.2977C360.096 38.5225 414.544 41.9973 456.892 74.3954C487.117 97.5189 504.442 135.708 507.497 174.904C510.635 215.164 507.385 252.522 503.26 286.507V286.507Z" fill="#394655"/>
<path d="M490.614 335.733C479.813 384.714 450.061 430.367 397.308 448.439C348.292 465.231 283.823 461.29 236.141 429.461C217.992 417.346 204.147 383.803 202.157 362.994C197.968 319.191 215.379 287.093 211.391 246.666C208.063 212.921 191.941 188.466 192.444 148.444C192.773 122.287 198.685 91.2752 218.697 75.0496C244.05 54.4939 273.084 41.4439 306.474 41.6118C359.382 41.8779 419.036 45.7222 461.157 83.7012C499.666 118.424 505.153 179.565 503.367 227.299C501.894 266.669 498.041 302.053 490.614 335.733V335.733Z" fill="#96D6FF"/>
<path d="M231.254 60.8226C233.705 65.0651 234.438 69.7614 234.037 74.2266C233.635 78.6919 232.181 82.8968 230.143 86.4882C228.106 90.0797 225.457 93.0902 222.014 95.4015C218.57 97.7129 214.116 100.137 209.416 100.576C204.716 101.015 200.742 99.1749 197.276 97.0379C193.81 94.9008 189.98 92.1316 184.464 90.096C178.947 88.0604 173.548 85.8934 170.552 82.8556C167.555 79.8176 165.175 76.4814 163.582 72.9243C161.99 69.3673 161.329 65.9172 161.453 62.6372C161.576 59.3571 162.484 56.2477 164.08 53.4173C165.676 50.5869 167.96 48.0357 170.881 45.9142C173.803 43.7927 177.362 42.1021 181.565 41.0251C185.768 39.9482 190.227 39.5876 194.76 39.8951C199.293 40.2027 203.902 41.1776 208.299 42.7914C212.695 44.4054 216.873 46.6609 220.455 49.5369C224.037 52.4129 228.804 56.5802 231.254 60.8226V60.8226Z" fill="#96D6FF"/>
<path d="M177.352 39.758C174.212 40.9346 171.456 42.4586 169.079 44.2443C165.91 46.6253 163.421 49.4708 161.667 52.6116C159.913 55.7524 158.891 59.1825 158.716 62.7925C158.541 66.4025 159.212 70.184 160.88 74.0737C162.548 77.9635 165.065 81.6132 168.256 84.9184C171.447 88.2236 176.519 90.8709 182.537 92.9154C188.554 94.9599 192.77 97.8809 196.485 100.134C200.187 102.38 204.584 102.988 209.736 101.699C210.329 101.55 209.839 99.7183 209.291 99.7478C204.49 100.057 200.749 97.883 197.325 96.3401C193.938 94.2595 190.198 91.5615 184.808 89.5822C179.418 87.6029 174.142 85.494 171.212 82.5359C168.282 79.5776 165.949 76.3268 164.391 72.8608C162.832 69.3949 162.19 66.0339 162.31 62.8345C162.431 59.6351 163.314 56.5953 164.877 53.8308C166.439 51.0663 168.672 48.5768 171.531 46.5008C172.961 45.4631 174.555 44.5279 176.297 43.722C178.039 42.9161 179.936 42.2348 181.991 41.7039C186.102 40.6461 190.456 40.2918 194.884 40.5874C199.312 40.883 203.819 41.8336 208.108 43.407C212.398 44.9804 216.468 47.1784 219.962 49.9833C223.457 52.7883 228.108 56.8478 230.505 60.9811C232.473 64.3755 233.365 68.0605 233.297 71.6917C233.284 72.3678 236.667 72.4123 236.825 70.4598C237.118 66.8157 235.806 63.0837 233.835 59.7104C231.17 55.1491 226.42 50.6554 222.547 47.5473C218.675 44.4393 214.155 42.0143 209.412 40.2986C204.669 38.5829 199.71 37.5689 194.833 37.2876C189.956 37.0065 185.15 37.4571 180.621 38.7001C179.489 39.0108 178.399 39.3668 177.352 39.7579L177.352 39.758Z" fill="#394655"/>
<path d="M186.634 67.8545C186.993 66.4916 188.704 65.5119 191.79 65.3474C196.478 65.0975 202.923 68.2124 206.795 70.9391C208.919 72.4349 211.221 73.7938 212.826 75.8574C213.371 76.5578 213.883 77.275 214.014 78.4518C212.971 78.5909 211.824 77.5848 211.017 76.7927C207.834 73.6707 203.976 71.2189 199.592 69.9223C195.903 68.8315 195.047 67.472 191.595 67.1926C189.41 67.0158 188.437 67.8267 186.634 67.8545V67.8545Z" fill="#394655"/>
<path d="M206.051 70.4C206.6 69.2323 205.896 72.489 204.96 73.1757C201.447 75.7524 198.236 78.7267 194.827 81.4316C193.717 82.3121 192.943 81.1392 193.793 80.1219C194.657 79.0886 195.633 78.2629 196.669 77.4521C197.641 76.6927 198.781 76.1486 199.693 75.3248C201.447 73.7419 202.162 72.1462 203.821 70.4675C204.391 69.8919 205.758 71.0215 206.049 70.4015L206.051 70.4Z" fill="#394655"/>
<path d="M290.256 444.062C287.536 443.561 285.412 443.71 283.747 444.389C282.082 445.069 280.864 446.275 279.82 447.812C278.776 449.349 277.888 451.212 276.997 453.213C276.106 455.214 275.235 457.356 274.386 459.511C273.537 461.667 272.886 463.746 272.472 465.691C272.057 467.636 271.864 469.445 271.98 471.04C272.096 472.635 272.529 474.016 273.429 475.098C274.329 476.18 275.702 476.964 277.649 477.355C279.597 477.746 281.168 477.553 282.404 476.907C283.64 476.262 284.535 475.164 285.21 473.752C285.884 472.34 286.337 470.616 286.83 468.712C287.322 466.809 287.875 464.728 288.757 462.568C289.639 460.408 290.995 458.322 292.286 456.343C293.577 454.365 294.782 452.494 295.426 450.828C296.07 449.163 296.153 447.707 295.376 446.556C294.598 445.405 292.975 444.563 290.256 444.062V444.062Z" fill="#E1D6B9"/>
<path d="M296.947 450.57C296.48 452.184 295.57 453.982 294.505 455.905C293.288 458.103 291.885 460.457 290.873 462.947C289.86 465.436 289.163 467.805 288.493 469.965C287.824 472.125 287.154 474.072 286.219 475.669C285.283 477.266 284.083 478.509 282.554 479.257C281.025 480.005 279.179 480.259 277.035 479.893C274.891 479.526 273.299 478.649 272.196 477.391C271.093 476.132 270.474 474.493 270.215 472.598C269.957 470.702 270.05 468.553 270.427 466.262C270.803 463.972 271.479 461.544 272.446 459.062C273.413 456.579 274.413 454.224 275.423 452.082C276.434 449.941 277.443 448.015 278.64 446.462C279.095 445.871 279.583 445.336 280.111 444.863C281.176 443.906 284.186 444.687 282.901 445.424C281.711 446.107 281.328 447.012 280.526 448.23C279.549 449.715 278.858 451.632 278.077 453.468C277.295 455.305 275.842 457.036 275.075 458.95C274.309 460.864 273.728 462.722 273.362 464.497C272.996 466.272 272.83 467.961 272.94 469.464C273.05 470.966 273.45 472.278 274.276 473.286C275.103 474.295 276.36 474.999 278.09 475.343C279.82 475.687 281.182 475.506 282.204 474.894C283.226 474.282 283.29 472.547 283.767 471.241C284.244 469.935 284.995 468.337 285.418 466.655C285.84 464.973 286.56 463.898 287.593 462.047C288.627 460.197 290.222 458.383 291.684 456.507C293.146 454.63 294.321 452.811 294.94 451.21C295.017 451.01 295.087 450.812 295.147 450.619C295.301 450.121 295.41 449.647 295.421 449.196C295.433 448.675 297.486 448.528 297.12 449.89C297.061 450.111 297.014 450.339 296.947 450.57L296.947 450.57Z" fill="#394655"/>
<g clip-path="url(#clip0)">
<ellipse cx="401.496" cy="356" rx="59.4958" ry="60" fill="#3D5B6A"/>
<rect width="10.456" height="10.456" transform="matrix(0.704117 0.710084 -0.704117 0.710084 423.807 314.6)" fill="#59D29F"/>
<path fill-rule="evenodd" clip-rule="evenodd" d="M416.37 322.1H386.622V352.1L371.748 367.1C371.748 375.384 378.407 382.1 386.622 382.1H416.37V397.1L431.244 382.1C431.244 373.816 424.585 367.1 416.37 367.1V367.1H386.622V352.1H416.37V322.1Z" fill="#59D29F"/>
</g>
<g opacity="0.06">
<path d="M425.296 235.606C412.828 235.606 402.72 226.287 402.72 214.792C402.72 203.296 412.828 193.977 425.296 193.977C437.764 193.977 447.872 203.296 447.872 214.792C447.872 226.287 437.764 235.606 425.296 235.606Z" fill="black"/>
<path d="M191.074 41.0075C184.415 40.9367 180.271 41.8474 175.375 44.2959C170.31 46.8293 165.275 52.2629 163.758 56.8342C161.476 63.7112 163.334 71.8552 168.804 78.9507C172.018 83.1198 175.691 85.5532 183.495 88.6823C186.721 89.976 191.228 92.2056 193.509 93.6374C199.162 97.1843 203.4 98.9901 207.126 99.4398C209.562 99.7337 210.259 100.081 210.259 101.004C210.259 101.902 209.549 102.298 207.352 102.628C205.754 102.868 203.56 102.87 202.475 102.632C200.514 102.201 200.494 102.225 198.799 107.347C194.9 119.127 192.94 133.369 192.958 149.772C192.977 168.208 194.794 178.847 202.591 206.176C208.184 225.777 209.788 232.747 211.219 243.675C213.284 259.438 212.541 270.449 207.291 301.834C202.4 331.074 202.104 333.732 202.078 348.674C202.054 363.045 202.717 368.65 205.624 378.676C211.1 397.566 219.428 413.012 229.665 423.259C237.713 431.315 252.42 439.625 271.13 446.691C276.635 448.769 276.999 448.825 277.633 447.691C279.365 444.593 280.86 443.89 287.017 443.868C248.12 409.893 252.342 361.05 261.352 334.24C268.727 312.294 293.299 280.667 293.299 280.667L270.764 278.672C270.764 278.672 263.463 235.763 257.533 218.384C234.821 151.822 227.543 97.258 261.929 59.1772C267.804 52.6701 274.598 47.8925 281.647 44.3864C272.57 46.2972 263.243 49.2226 255.084 52.7675C248.394 55.6738 235.964 62.7406 235.984 63.6253C235.993 64.0186 236.293 65.6128 236.651 67.1692C237.454 70.6527 236.57 72.7643 234.438 72.4605C233.244 72.2904 232.932 71.6946 232.598 68.952C231.963 63.748 229.379 59.494 223.479 53.939C214.173 45.178 206.085 41.6429 194.091 41.096C193.027 41.0475 192.025 41.0177 191.074 41.0076V41.0075ZM192.463 65.2625C194.357 65.3271 196.479 65.6822 198.38 66.3141C202.394 67.6485 210.806 73.0472 212.775 75.5523C215.797 79.3971 213.83 79.5879 209.351 75.8845C207.596 74.4331 205.963 73.2467 205.722 73.2467C205.481 73.2467 202.918 75.1748 200.026 77.5316C197.134 79.8884 194.397 81.8165 193.943 81.8185C192.044 81.8255 193.375 79.7226 197.07 76.8771C201.739 73.2817 202.993 71.4551 201.222 70.829C200.572 70.5991 198.282 69.6873 196.133 68.8025C193.104 67.5551 191.587 67.2896 189.377 67.6212C186.293 68.084 185.534 67.2278 187.904 65.9584C188.899 65.4252 190.568 65.1979 192.463 65.2625V65.2625ZM296.827 451.443C296.822 451.458 296.82 451.469 296.816 451.484L296.111 453.788L301.798 454.81C301.889 454.826 302.005 454.843 302.097 454.859C300.27 453.74 298.514 452.6 296.827 451.443V451.443Z" fill="black"/>
<path opacity="0.06" fill-rule="evenodd" clip-rule="evenodd" d="M285.412 280.804L280.911 295.779C283.535 295.805 290.808 289.319 297.761 288.918C375.137 284.459 423.508 288.51 486.07 283.478C487.533 283.361 489.856 283.368 491.306 283.688C496.55 284.843 499.441 298.153 500.721 297.379C501.33 283.161 498.384 278.116 494.871 274.537L285.412 280.804Z" fill="black"/>
</g>
<path d="M253.344 150.892C253.635 160.646 256.068 170.058 260.199 178.791C264.33 187.524 270.156 195.58 277.224 202.559C284.292 209.538 292.599 215.44 301.713 219.785C310.827 224.131 320.748 226.918 331.074 227.617C341.4 228.317 351.158 226.852 359.984 223.545C368.809 220.238 376.702 215.089 383.274 208.488C389.845 201.887 395.094 193.836 398.624 184.779C402.154 175.721 403.962 165.657 403.666 155.079C403.369 144.5 400.997 134.416 396.974 125.314C392.951 116.212 387.278 108.092 380.368 101.374C373.458 94.6548 365.311 89.3365 356.312 85.7506C347.313 82.1648 337.461 80.308 327.131 80.4516C316.801 80.5952 306.968 82.7145 298.029 86.3555C289.09 89.9966 281.046 95.1618 274.326 101.486C267.606 107.81 262.211 115.295 258.573 123.627C254.934 131.959 253.053 141.138 253.344 150.892V150.892Z" fill="#394655"/>
<path d="M258.427 148.664C258.426 157.842 260.417 166.847 264.044 175.308C267.671 183.769 272.938 191.686 279.467 198.585C285.996 205.483 293.787 211.355 302.417 215.672C311.047 219.988 320.512 222.745 330.376 223.441C340.241 224.137 349.57 222.706 357.993 219.525C366.417 216.343 373.939 211.412 380.205 205.137C386.47 198.862 391.48 191.243 394.873 182.717C398.266 174.192 400.041 164.761 399.837 154.896C399.632 145.031 397.468 135.676 393.747 127.257C390.026 118.839 384.75 111.357 378.311 105.157C371.872 98.9575 364.273 94.039 355.877 90.6693C347.481 87.2997 338.287 85.4742 328.638 85.4246C318.989 85.375 309.795 87.0966 301.415 90.2079C293.035 93.3192 285.471 97.8235 279.105 103.438C272.739 109.052 267.573 115.778 263.996 123.386C260.418 130.995 258.428 139.486 258.427 148.664Z" fill="white"/>
<path d="M312.296 169.895C301.069 169.895 291.969 160.787 291.969 149.552C291.969 138.316 301.069 129.208 312.296 129.208C323.522 129.208 332.623 138.316 332.623 149.552C332.623 160.787 323.522 169.895 312.296 169.895Z" fill="#394455"/>
<path d="M321.293 150.218C315.772 150.218 311.296 145.739 311.296 140.214C311.296 134.688 315.772 130.209 321.293 130.209C326.814 130.209 331.29 134.688 331.29 140.214C331.29 145.739 326.814 150.218 321.293 150.218Z" fill="white"/>
<path d="M444.522 112.906C444.381 120.607 446.014 128.941 448.426 137.558C450.839 146.176 453.958 155.089 457.109 163.61C460.261 172.131 463.451 180.219 466.9 187.136C470.348 194.053 474.108 199.799 478.728 203.933C483.348 208.068 488.439 210.23 493.92 210.731C499.4 211.231 506.266 212.22 512.114 209.603C517.963 206.986 523.722 202.887 528.839 197.435C533.956 191.982 538.431 185.173 541.694 177.156C544.956 169.139 546.69 160.678 546.878 152.265C547.066 143.852 545.706 135.492 542.884 127.652C540.061 119.813 533.72 110.127 528.182 103.752C522.645 97.377 515.852 91.9404 508.149 87.8472C500.447 83.7541 492.579 81.3888 485.139 80.5978C477.7 79.8068 470.687 80.5931 464.663 82.8328C458.64 85.0725 453.609 88.7641 450.105 93.7997C446.602 98.8354 444.663 105.204 444.522 112.906V112.906Z" fill="#394655"/>
<path d="M447.92 113.837C447.567 120.984 448.728 128.812 450.734 136.971C452.739 145.13 455.564 153.624 458.686 161.734C461.807 169.845 465.207 177.531 468.837 184.08C472.467 190.629 476.353 196.044 480.864 199.93C485.374 203.817 490.14 205.837 495.168 206.299C500.197 206.761 506.578 207.818 511.821 205.355C517.063 202.892 522.204 199.044 526.76 193.939C531.316 188.834 535.286 182.467 538.15 174.985C541.013 167.503 542.489 159.618 542.56 151.784C542.63 143.951 541.294 136.171 538.628 128.871C535.962 121.571 529.882 112.338 524.742 106.384C519.602 100.431 513.325 95.3407 506.238 91.4877C499.152 87.6348 491.944 85.3811 485.158 84.578C478.372 83.7749 472.009 84.4242 466.556 86.4091C461.104 88.394 456.565 91.7111 453.352 96.2874C450.139 100.864 448.272 106.69 447.92 113.837V113.837Z" fill="white"/>
<path d="M523.249 148.146C514.988 145.47 510.384 136.675 512.964 128.502C515.544 120.328 524.332 115.872 532.593 118.548C540.853 121.224 545.458 130.019 542.878 138.193C540.297 146.366 531.509 150.822 523.249 148.146Z" fill="#394455"/>
<path d="M531.914 134.738C527.852 133.422 525.587 129.096 526.856 125.076C528.125 121.057 532.447 118.865 536.51 120.181C540.572 121.497 542.837 125.823 541.568 129.842C540.299 133.862 535.977 136.054 531.914 134.738Z" fill="white"/>
<path d="M435.417 209.819L429.014 209.903L425.282 209.82C424.092 209.793 423.031 210.359 422.259 211.192C421.486 212.026 421.106 213.18 420.926 214.44L419.907 221.571L418.492 228.727C418.237 230.016 418.577 231.152 419.201 231.979C419.826 232.806 420.784 233.277 421.913 233.304L425.678 233.393L433.126 233.22C434.555 233.186 435.882 232.631 436.855 231.777C437.828 230.924 438.404 229.764 438.52 228.497L439.171 221.396L439.699 214.306C439.793 213.044 439.23 211.914 438.438 211.105C437.647 210.295 436.571 209.812 435.417 209.819L435.417 209.819Z" fill="#2E3436"/>
<path d="M434.249 211.978L429.023 212.048L426.534 211.946C425.589 211.907 424.716 212.384 424.059 213.067C423.403 213.749 423.019 214.695 422.841 215.727L421.833 221.557L420.571 227.402C420.345 228.446 420.573 229.385 421.063 230.061C421.553 230.736 422.336 231.101 423.274 231.139L425.83 231.24L431.749 231.112C432.869 231.088 433.936 230.637 434.738 229.94C435.541 229.244 436.055 228.295 436.186 227.258L436.92 221.451L437.554 215.652C437.667 214.619 437.267 213.692 436.657 213.029C436.047 212.366 435.192 211.965 434.249 211.978L434.249 211.978Z" fill="white"/>
<path d="M405.108 203.773C405.286 206.059 406.693 208.127 408.693 209.989C410.693 211.851 413.455 213.502 416.654 214.854C419.853 216.206 423.462 217.246 427.117 217.801C430.772 218.357 434.476 218.418 438.116 217.979C441.756 217.54 445.015 216.666 447.845 215.586C450.675 214.505 453.053 213.224 454.925 211.802C456.798 210.381 458.183 208.806 459.057 207.049C459.931 205.291 460.294 203.346 459.976 201.249C459.659 199.153 458.677 197.108 457.161 195.23C455.646 193.351 453.607 191.641 451.212 190.218C448.817 188.795 446.07 187.66 443.038 186.916C440.006 186.172 436.685 185.818 433.052 185.938C429.418 186.058 425.793 186.637 422.35 187.593C418.908 188.55 415.664 189.891 412.959 191.529C410.255 193.167 408.033 195.054 406.736 197.184C405.407 199.366 404.956 201.825 405.108 203.773V203.773Z" fill="#394655"/>
<path d="M412.799 203.26C413.111 205.075 414.172 206.771 415.802 208.291C417.432 209.81 419.629 211.156 422.124 212.23C424.62 213.304 427.403 214.098 430.241 214.515C433.078 214.932 435.973 214.971 438.82 214.623C441.667 214.275 444.209 213.587 446.415 212.706C448.621 211.826 450.483 210.755 451.943 209.561C453.403 208.366 454.466 207.043 455.093 205.602C455.719 204.161 455.912 202.598 455.585 200.942C455.259 199.286 454.44 197.696 453.231 196.245C452.022 194.794 450.426 193.484 448.546 192.4C446.666 191.315 444.504 190.458 442.12 189.903C439.737 189.348 437.131 189.096 434.31 189.213C431.488 189.33 428.705 189.803 426.076 190.563C423.448 191.323 420.977 192.372 418.89 193.644C416.804 194.916 415.11 196.412 414.031 198.045C412.952 199.677 412.487 201.444 412.799 203.26V203.26Z" fill="#E1D0CB"/>
<path d="M422.893 192.178C423.348 193.479 424.337 194.635 425.706 195.61C427.074 196.585 428.816 197.382 430.707 197.993C432.597 198.604 434.628 199.031 436.615 199.258C438.602 199.486 440.546 199.512 442.367 199.311C444.188 199.109 445.725 198.699 447.026 198.129C448.327 197.558 449.391 196.827 450.23 195.967C451.069 195.106 451.683 194.114 452.039 193.016C452.396 191.917 452.494 190.711 452.252 189.436C452.011 188.161 451.447 186.938 450.594 185.834C449.741 184.729 448.6 183.743 447.22 182.943C445.841 182.143 444.223 181.53 442.426 181.166C440.63 180.801 438.654 180.686 436.57 180.873C434.487 181.059 432.494 181.528 430.692 182.211C428.89 182.894 427.279 183.79 425.974 184.83C424.67 185.869 423.673 187.053 423.114 188.305C422.556 189.557 422.439 190.877 422.893 192.178V192.178Z" fill="#394655"/>
<path d="M303.231 320.951C301.334 322.933 300.301 324.782 299.958 326.545C299.615 328.308 299.953 329.993 300.66 331.718C301.368 333.442 302.429 335.219 303.605 337.075C304.781 338.931 306.084 340.849 307.411 342.757C308.737 344.665 310.108 346.364 311.497 347.793C312.885 349.222 314.281 350.391 315.668 351.183C317.055 351.976 318.437 352.386 319.826 352.241C321.214 352.096 322.612 351.392 323.997 349.991C325.382 348.589 326.077 347.176 326.215 345.788C326.352 344.4 325.928 343.044 325.124 341.696C324.319 340.349 323.135 339.011 321.823 337.54C320.511 336.07 319.085 334.45 317.773 332.513C316.461 330.575 315.468 328.286 314.529 326.109C313.59 323.933 312.693 321.889 311.662 320.425C310.63 318.961 309.468 318.08 308.089 318.084C306.71 318.089 305.128 318.969 303.231 320.951V320.951Z" fill="#E1D6B9"/>
<path d="M312.282 318.996C313.367 320.285 314.364 322.045 315.38 324.003C316.541 326.241 317.731 328.721 319.246 330.951C320.76 333.182 322.347 335.083 323.775 336.844C325.203 338.605 326.455 340.248 327.271 341.917C328.087 343.585 328.465 345.278 328.252 346.967C328.04 348.656 327.245 350.333 325.772 351.913C324.299 353.492 322.703 354.328 321.057 354.544C319.412 354.76 317.713 354.361 315.999 353.52C314.285 352.678 312.551 351.402 310.855 349.812C309.159 348.221 307.512 346.306 305.978 344.117C304.444 341.928 303.033 339.783 301.806 337.748C300.58 335.714 299.531 333.8 298.894 331.938C298.651 331.23 298.473 330.526 298.368 329.823C298.154 328.403 300.443 326.334 300.354 327.814C300.273 329.185 300.58 330.522 301.138 331.883C301.819 333.542 302.84 335.251 303.971 337.036C305.102 338.821 306.356 340.665 307.631 342.5C308.907 344.335 310.225 345.969 311.56 347.344C312.895 348.718 314.238 349.842 315.572 350.605C316.906 351.367 318.235 351.761 319.571 351.621C320.906 351.482 322.25 350.805 323.582 349.458C324.914 348.11 325.583 346.75 325.715 345.415C325.847 344.081 325.44 342.777 324.666 341.481C323.893 340.185 322.754 338.897 321.492 337.483C320.23 336.069 318.859 334.511 317.597 332.648C316.335 330.785 315.38 328.583 314.477 326.49C313.574 324.396 312.711 322.431 311.719 321.023C311.595 320.847 311.469 320.679 311.341 320.521C311.012 320.115 310.678 319.76 310.309 319.5C309.883 319.2 310.88 317.409 311.811 318.473C311.962 318.646 312.127 318.812 312.282 318.996L312.282 318.996Z" fill="#394655"/>
<path fill-rule="evenodd" clip-rule="evenodd" d="M207.185 264.355C198.037 285.85 191.802 293.613 176.744 309.479C165.177 321.665 147.731 334.101 132.687 349.348C119.059 363.16 106.418 370.486 68.1062 381.563C56.065 385.044 23.8292 388.155 16.3462 419.103C62.9735 388.014 139.356 395.593 184.837 369.202C222.987 347.064 274.757 285.204 313.09 280.268C241.242 279.596 219.971 275.007 207.185 264.355Z" fill="#59D1A0"/>
<path fill-rule="evenodd" clip-rule="evenodd" d="M431.092 276.516L505.28 271.383C505.28 271.383 507.585 272.435 507.981 273.511C515.386 293.619 495.189 334.742 495.189 334.742C495.189 331.752 508.795 290.518 489.24 280.936C472.703 272.833 450.866 278.855 431.092 276.516V276.516Z" fill="#59D1A0"/>
<path fill-rule="evenodd" clip-rule="evenodd" d="M206.459 266.023C197.701 286.236 191.397 294.039 176.743 309.478C165.176 321.665 147.731 334.1 132.687 349.348C119.059 363.16 106.418 370.486 68.106 381.563C57.4154 384.654 30.821 387.47 19.7495 409.718C22.4964 406.208 26.9965 404.811 29.686 400.962C34.2182 394.477 90.8506 389.273 105.782 379.761C115.609 373.501 138.577 361.948 150.112 354.197C161.648 346.445 200.561 314.122 210.428 312.305C241.592 306.565 266.79 280.144 266.79 280.144C266.79 280.144 260.989 278.795 259.444 278.436C232.831 276.449 219.65 272.818 210.876 267.083C209.086 266.657 207.068 266.179 206.459 266.023V266.023Z" fill="#53CA99"/>
<path fill-rule="evenodd" clip-rule="evenodd" d="M207.444 259.71C212.4 260.952 215.062 264.983 219.912 266.591C234.827 271.535 248.291 274.782 263.961 275.92C283.254 277.321 304.283 277.432 323.624 277.087C360.46 276.429 397.529 275.15 434.327 273.355C454.39 272.376 475.138 271.051 495.155 269.39C499.046 269.067 503.176 263.295 506.808 264.725C509.216 265.673 508.83 268.046 509.464 270.556C511.918 275.519 509.61 277.243 503.779 278.253C484.231 281.325 464.351 281.834 444.582 282.684C396.302 284.761 347.94 284.814 299.619 284.317C282.52 284.141 265.309 284.843 248.346 282.684C234.996 280.985 221.291 279.211 208.959 273.821C204.812 272.009 200.92 271.075 199.936 266.655C199.626 265.265 201.137 264.464 201.828 263.334C202.406 262.391 202.042 261.06 203.074 260.468C204.422 259.695 205.936 259.332 207.444 259.71V259.71Z" fill="#59D1A0"/>
<path fill-rule="evenodd" clip-rule="evenodd" d="M202.434 261.249C202.185 261.892 202.216 262.699 201.827 263.334C201.136 264.464 199.626 265.265 199.936 266.654C200.92 271.075 204.812 272.008 208.959 273.821C221.291 279.21 234.996 280.985 248.345 282.683C265.308 284.842 282.52 284.141 299.618 284.317C347.94 284.814 396.302 284.76 444.582 282.683C464.351 281.833 484.23 281.325 503.778 278.253C509.609 277.243 511.918 275.519 509.464 270.556C509.408 270.334 509.367 270.116 509.324 269.897C509.814 274.577 502.621 274.832 497.383 275.857C463.553 282.475 428.519 279.423 394.053 279.979C350.936 280.674 300.184 286.541 257.726 278.99C239.836 275.809 213.576 268.753 202.434 261.249V261.249Z" fill="#3D5C6B"/>
<defs>
<clipPath id="clip0">
<path d="M342 296H460.992V416H342V296Z" fill="white"/>
</clipPath>
</defs>
</svg>
