<svg width="500" height="88" viewBox="0 0 500 88" fill="none" xmlns="http://www.w3.org/2000/svg">
<rect width="500" height="88" />
<path d="M193.79 83.6057C194.556 84.4257 195.846 84.4561 196.649 83.673L201.787 78.6632C202.564 77.9051 202.595 76.6651 201.856 75.8697L195.285 68.8C203.085 62.2 207.685 52.2 207.685 40.4V39.6C207.685 18.7 192.885 3.60002 171.585 3.60002C150.385 3.60002 135.385 19 135.385 39.9V40.7C135.385 61.3 149.685 77 171.585 77C176.585 77 181.285 76.1 185.385 74.6L193.79 83.6057ZM171.685 66.5C158.785 66.5 149.185 56.6 149.185 40.6V39.8C149.185 24.4 157.485 14.1 171.585 14.1C185.585 14.1 193.785 24.9 193.785 39.6V40.4C193.785 48.8 191.385 55.6 187.185 60.2L179.753 52.1767C178.999 51.3627 177.726 51.3181 176.917 52.0773L171.73 56.9441C170.93 57.695 170.884 58.9504 171.628 59.7576L177.285 65.9C175.585 66.3 173.685 66.5 171.685 66.5Z" fill="white"/>
<path d="M231.93 77C240.43 77 245.93 72.9 248.53 67.8V74C248.53 75.1046 249.426 76 250.53 76H258.63C259.735 76 260.63 75.1046 260.63 74V25.7C260.63 24.5955 259.735 23.7 258.63 23.7H250.53C249.426 23.7 248.53 24.5955 248.53 25.7V54.8C248.53 63.1 242.83 67.3 236.33 67.3C229.33 67.3 226.03 63.7 226.03 55.8V25.7C226.03 24.5955 225.135 23.7 224.03 23.7H215.93C214.826 23.7 213.93 24.5955 213.93 25.7V57.2C213.93 71.1 221.63 77 231.93 77Z" fill="white"/>
<path d="M293.377 67.6C284.177 67.6 278.877 60.9 278.877 50.2V49.4C278.877 38.6 284.377 32.1 293.377 32.1C302.377 32.1 307.777 38.7 307.777 49.5V50.2C307.777 60.9 302.377 67.6 293.377 67.6ZM293.277 77C308.677 77 320.177 66.4 320.177 50.1V49.3C320.177 33.3 308.677 22.6 293.377 22.6C277.977 22.6 266.477 33.4 266.477 49.6V50.4C266.477 66.3 277.877 77 293.277 77Z" fill="white"/>
<path d="M326.11 74C326.11 75.1046 327.006 76 328.11 76H336.21C337.315 76 338.21 75.1046 338.21 74V48.8C338.21 38.4096 343.818 34.7662 353.229 34.2608C354.325 34.202 355.21 33.316 355.21 32.2188V24.9229C355.21 23.8094 354.297 22.9008 353.187 22.9951C345.642 23.6361 341.248 27.4238 338.21 33.5V25.7C338.21 24.5955 337.315 23.7 336.21 23.7H328.11C327.006 23.7 326.11 24.5955 326.11 25.7V74Z" fill="white"/>
<path d="M379.356 77C387.856 77 393.356 72.9 395.956 67.8V74C395.956 75.1046 396.852 76 397.956 76H406.056C407.161 76 408.056 75.1046 408.056 74V25.7C408.056 24.5955 407.161 23.7 406.056 23.7H397.956C396.852 23.7 395.956 24.5955 395.956 25.7V54.8C395.956 63.1 390.256 67.3 383.756 67.3C376.756 67.3 373.456 63.7 373.456 55.8V25.7C373.456 24.5955 372.561 23.7 371.456 23.7H363.356C362.252 23.7 361.356 24.5955 361.356 25.7V57.2C361.356 71.1 369.056 77 379.356 77Z" fill="white"/>
<path d="M415.716 74C415.716 75.1046 416.611 76 417.716 76H425.816C426.92 76 427.816 75.1046 427.816 74V44.7C427.816 36.7 433.316 32.7 439.316 32.7C445.216 32.7 448.616 36 448.616 43.7V74C448.616 75.1046 449.511 76 450.616 76H458.716C459.82 76 460.716 75.1046 460.716 74V44.7C460.716 36.7 466.216 32.7 472.216 32.7C478.216 32.7 481.516 36 481.516 43.7V74C481.516 75.1046 482.411 76 483.516 76H491.616C492.72 76 493.616 75.1046 493.616 74V42.9C493.616 28.5 485.816 22.6 476.216 22.6C469.716 22.6 462.516 25.5 458.516 32C455.916 25.5 450.516 22.6 443.716 22.6C436.016 22.6 430.316 26.8 427.816 31.7V25.7C427.816 24.5955 426.92 23.7 425.816 23.7H417.716C416.611 23.7 415.716 24.5955 415.716 25.7V74Z" fill="white"/>
</svg>
